<svg width="12" height="14" viewBox="0 0 12 14" fill="none" xmlns="http://www.w3.org/2000/svg">
<path d="M10.9125 0C11.0562 0 11.1937 0.0277594 11.325 0.0832783C11.5312 0.163472 11.6953 0.289932 11.8172 0.462657C11.9391 0.635382 12 0.826614 12 1.03635V12.9636C12 13.1734 11.9391 13.3646 11.8172 13.5373C11.6953 13.7101 11.5312 13.8365 11.325 13.9167C11.2062 13.9661 11.0687 13.9907 10.9125 13.9907C10.6125 13.9907 10.3531 13.892 10.1344 13.6946L6 9.77132L1.86562 13.6946C1.64062 13.8982 1.38125 14 1.0875 14C0.94375 14 0.80625 13.9722 0.675 13.9167C0.46875 13.8365 0.304687 13.7101 0.182812 13.5373C0.0609375 13.3646 0 13.1734 0 12.9636V1.03635C0 0.826614 0.0609375 0.635382 0.182812 0.462657C0.304687 0.289932 0.46875 0.163472 0.675 0.0832783C0.80625 0.0277594 0.94375 0 1.0875 0H10.9125Z" fill="white"/>
</svg>
